<svg xmlns="http://www.w3.org/2000/svg" viewBox="0 0 100 100" role="img" aria-label="Artometrics">
  <style>
    .mark { fill: #1C1C1E; }
    @media (prefers-color-scheme: dark) {
      .mark { fill: #FAFAF8; }
    }
  </style>
  <path class="mark" d="M78.42409206964325 13.7572413414197 76.31050568113 12.0 70.30014711657445 17.75905464236257C64.49278897781491 13.857484145030355 57.358118195536505 11.919098760946127 50.38870628411207 12.542538003229055C43.3163721603715 13.175228397096589 36.429280521831096 16.490138873800802 31.87935687791642 21.94141145441172C29.60444250536615 24.667095194124258 27.926821269009416 27.898399815571644 27.073965626338413 31.34474514985896C26.22110998366741 34.791090484146274 26.201276131512273 38.44649790598274 27.066373721207263 41.889806478217594C27.94589593065144 45.39071863063508 29.7417610894259 48.659887878924096 32.24035196690279 51.265050124679554C34.034187180731045 53.13546571593039 36.18617348470943 54.65937163249684 38.54059823556882 55.74142570484221L27.844194057773397 73.47022939915315C26.39286349211403 74.25892751229001 25.012449030908293 75.17777786622513 23.72754874333991 76.21603465305118C19.91982872480967 79.29274910626545 16.961263295198993 83.4098392588902 15.259442861236703 88.0H17.105794189133334C21.421033065681215 83.44172526044105 27.640511546750773 80.7453652542976 33.917308911560546 80.71177107409224C39.49024177189821 80.68187794763833 45.050363292327056 82.73093314253677 49.27117784880621 86.3701128671554L60.137971364595 76.98242413089542C62.04652441677811 79.22862864658057 64.13400770022713 81.32282157274805 66.37422024547575 83.2383556189463C68.1019480556981 84.71574035746885 69.92049403105189 86.08702822178353 71.81609784348689 87.34187524114913L84.74055713876331 76.93811824704409L81.92244195407898 73.73129751964467L78.61844484100078 76.43600862143239C76.68602028867969 74.93888492956884 75.39027188042 72.70041170164811 74.8609262951503 70.31389632366988C74.30016920240044 67.78550721855322 74.43986025681367 65.16164990641228 74.43986025681367 62.57186126854741V60.158964020238415V27.459110239332304V24.446642283290437C74.43986025681367 22.899506916375415 74.47430852634628 21.339655108365704 74.82125859084002 19.83190274931853C75.16820865533376 18.32405549145723 75.81342569266769 16.882257808236957 76.73565236847462 15.6400323311519ZM60.43490085727343 24.84433355746934C60.93708017420176 25.136429141802545 61.42740603612648 25.448861245447034 61.90410650425234 25.780759468341877V50.68426641655834H44.84488511780564ZM57.93329545965364 23.598903762613105 39.43453023682248 54.25976755409544C35.859094342220104 51.62831388844145 33.21400638600342 47.7246689623439 32.21671919659413 43.396036007856615C31.221705130342272 39.07728587518558 31.891406061724187 34.37580882509024 34.16024691016953 30.568753098258973C35.807310728373366 27.80501493407653 38.26053997269162 25.5378822642857 41.118512659314504 24.060307728134873C43.97648534593739 22.582733191984047 47.22098090255015 21.885511604501687 50.437291511363505 21.968642965687835C53.009909395045035 22.035175931163394 55.560002155514184 22.603763658873717 57.93329397685967 23.598902279819136ZM38.806049495038415 60.69343265867768H61.90410502145837V69.7694722065098L56.073521880732166 74.68683219642057C50.52735048598182 71.01225521412793 43.61169430438545 69.45971061480697 37.026950287693246 70.41107122655468C35.40675469624263 70.64513915162956 33.80876839288858 71.0277266864206 32.25692960349777 71.54838013343273Z"/>
</svg>
